<svg xmlns="http://www.w3.org/2000/svg" fill="currentColor" width="200" height="200" viewBox="796 674.586 200 200" xml:space="preserve"><path d="M822.161 860.495c-14.426 0-26.161-11.734-26.161-26.16V714.837c0-14.426 11.735-26.16 26.161-26.16h65.199c5.502 0 9.979 4.478 9.979 9.979s-4.477 9.979-9.979 9.979h-65.199a6.209 6.209 0 0 0-6.203 6.201v119.498a6.209 6.209 0 0 0 6.203 6.201h65.199c5.502 0 9.979 4.478 9.979 9.979s-4.477 9.979-9.979 9.979h-65.199z"/><path d="M931.654 838.936a9.916 9.916 0 0 1-7.058-2.925 9.906 9.906 0 0 1-2.923-7.055 9.914 9.914 0 0 1 2.923-7.056l37.333-37.335H846.265v-19.959H961.93l-37.333-37.335a9.914 9.914 0 0 1-2.923-7.056 9.906 9.906 0 0 1 2.923-7.055 9.908 9.908 0 0 1 7.056-2.925 9.905 9.905 0 0 1 7.057 2.925l54.367 54.369c1.885 1.886 2.924 4.39 2.924 7.056s-1.039 5.17-2.924 7.056l-54.367 54.37a9.908 9.908 0 0 1-7.056 2.925z"/></svg>